<svg height='300px' width='300px'  fill="#000000" xmlns="http://www.w3.org/2000/svg" viewBox="0 0 100 100" x="0px" y="0px"><g data-name="20-Cash on Delivery"><path d="M92.85,21.92a2,2,0,0,0-1.12-1.05l-6.41-2.42C83.21,16.6,76.77,11.06,74,9.65a44.51,44.51,0,0,0-8.83-2.78,1.93,1.93,0,0,0-.6-.7,2,2,0,0,0-1.49-.36l-47.38,7.6A2,2,0,0,0,14,15.7l4,24.72a2,2,0,0,0,2,1.68,1.84,1.84,0,0,0,.33,0l29.45-4.85a2,2,0,1,0-.65-3.95L21.62,37.8,18.29,17l43.43-7L64,24.54l-4.32.13a2.13,2.13,0,0,0-.55.1l-6.16,2a2,2,0,0,0-1.38,1.94,21.13,21.13,0,0,0,.46,4.82,15.62,15.62,0,0,0,2.13,3.2,2,2,0,0,0,2,.68l7.91-1.87,5.13.49,6.88,4a1.94,1.94,0,0,0,.7.46l.3.11,0,0a1.87,1.87,0,0,0,.6.21l5.61,2.13a2.07,2.07,0,0,0,.7.13A2,2,0,0,0,86,41.77l6.93-18.32A2,2,0,0,0,92.85,21.92ZM70.07,32.08l-5.89-.55a2,2,0,0,0-.64,0l-7,1.65a9.7,9.7,0,0,1-.69-1,16.16,16.16,0,0,1-.19-2.1l4.46-1.45,6.3-.2h.25l.07,0,.2-.05a.75.75,0,0,0,.18-.07l.18-.08.17-.1.15-.12.14-.12.13-.15.12-.15.09-.17.09-.16.06-.19.06-.19a1.11,1.11,0,0,0,0-.19,1.36,1.36,0,0,0,0-.2V26.4a.51.51,0,0,0,0-.13v-.12l-2.4-15a34.58,34.58,0,0,1,6.24,2.06c2,1,7.06,5.26,9.91,7.72L76.54,35.6l-5.66-3.26A2.14,2.14,0,0,0,70.07,32.08Zm12.86,6.4-2.8-1.06,5.52-14.57,2.8,1.06Z"></path><path d="M46.93,17.81a8.12,8.12,0,1,0-5,14.51,8.22,8.22,0,0,0,1-.06,8.12,8.12,0,0,0,4-14.45Zm-1.77,8.93a4.11,4.11,0,1,1-3.73-6.63l.5,0a4.12,4.12,0,0,1,3.23,6.66Z"></path><path d="M70.09,74.93a4,4,0,0,0-5.36-.86l-3.94,2-9.41,2.17a7.94,7.94,0,0,0-.65-2.1,15.4,15.4,0,0,0-2.95-3A2,2,0,0,0,46,72.73l-9.84,2.53-6.78-.09-10-3.86V69.67a2,2,0,0,0-2-2H9a2,2,0,0,0-2,2V93a2,2,0,0,0,2,2h8.33a2,2,0,0,0,2-2V91.11L38.6,95a1.75,1.75,0,0,0,.4,0,2.08,2.08,0,0,0,.6-.09l15.83-5,.16-.06,10-4.17a1.87,1.87,0,0,0,.54-.33l4.17-3.58a4.24,4.24,0,0,0,.56-5.89ZM15.33,91H11V71.67h4.33ZM67.7,78.74l-3.94,3.37-9.62,4L38.88,90.94,19.33,87V75.59l9,3.45a2,2,0,0,0,.69.13l7.4.1a1.86,1.86,0,0,0,.52-.07L46,76.87a12,12,0,0,1,1.26,1.26A13.71,13.71,0,0,1,47.61,80l-5.74,1.91-5.66.81a2,2,0,0,0,.28,4l.29,0,5.83-.84a1.37,1.37,0,0,0,.35-.08l7.5-2.5a1.94,1.94,0,0,0,1.08-.88L61.94,80a2.64,2.64,0,0,0,.47-.17l4.27-2.21c.08,0,.21-.09.29-.15l.76,1A.26.26,0,0,1,67.7,78.74Z"></path><path d="M57,76a2,2,0,0,0,2-2V47a2,2,0,0,0-2-2H25a2,2,0,0,0-2,2V69.92a2,2,0,0,0,4,0V49h8.09l.18,12.17a2,2,0,0,0,1,1.72,2,2,0,0,0,1,.25,1.89,1.89,0,0,0,1-.29l2.89-1.75,2.93,1.67a2,2,0,0,0,3-1.77l-.17-12H55V74A2,2,0,0,0,57,76Zm-14.86-19a2,2,0,0,0-2,0l-.9.54-.12-8.31,3.84-.06.12,8.31Z"></path></g></svg>