<svg id="Layer_1" enable-background="new 0 0 256 256" height="512" viewBox="0 0 256 256" width="512" xmlns="http://www.w3.org/2000/svg"><g id="Layer_32"><g><path d="m248.6 200.2h-241.2c-2.7 0-4.9 2.2-4.9 4.9 0 7.8 6.3 14.1 14.1 14.1h222.8c7.8 0 14.1-6.3 14.1-14.1 0-2.7-2.2-4.8-4.9-4.9z" fill="#edf4fc"/><path d="m233.5 36.8h-211c-6.6 0-12 5.4-12 12v140 .9c.6 6.1 5.8 10.7 11.9 10.6h211.2c6.1.1 11.3-4.5 11.9-10.6 0-.3 0-.6 0-.9v-140c0-6.7-5.4-12-12-12z" fill="#3a70bf"/><path d="m233.6 190.2c.9.1 1.7-.5 1.9-1.4v-.1-140c0-1.1-.9-2-2-2h-211c-1.1 0-2 .9-2 2v140 .2c.2.8 1 1.4 1.9 1.3z" fill="#f5c84c"/><path d="m179.1 174.6c-.2-4.4-3.3-8.1-7.6-9.2l-19.8-5-10.8-5.3c-.7-.3-1.1-1-1.1-1.7v-7.5c0-.7.4-1.3 1-1.7 6.6-4 11.1-10.8 12.2-18.4.1-.9.9-1.6 1.9-1.6 5.9 0 10.6-4.8 10.6-10.6 0-2.9-1.2-5.7-3.3-7.7v-18.7c.1-7.4-5.3-13.7-12.5-14.8-2.4-.3-4.9-.1-7.1.8-1.4.5-3 .1-4-1.1-2.7-3.1-6.7-4.9-10.9-4.9h-7.5c-14.5 0-26.3 11.8-26.3 26.3v11.8c-4.6 3.7-5.3 10.4-1.7 15 2 2.5 5.1 4 8.3 4 .9 0 1.7.6 1.9 1.6 1.1 8 5.9 14.9 12.9 18.8.6.3 1 1 1 1.7v7.1c0 .7-.4 1.4-1.1 1.7l-10.8 5.3-19.8 5c-4.3 1.1-7.3 4.8-7.6 9.2l-.9 15.6h103.9z" fill="#ef4460"/><path d="m141.1 90.5c-2.6-2.4-6-3.6-10.3-3.6-2.7 0-5.3.5-7.7 1.6-3.4 1.6-5.9 4.6-6.8 8.2-.6 2.2.8 4.4 2.9 5 .3.1.7.1 1 .1 1.9 0 3.6-1.3 4-3.2.2-1 .8-1.9 1.5-2.6 1.3-1.2 3.1-1.8 4.9-1.7 1.6-.1 3.3.5 4.5 1.6 1.1 1.2 1.7 2.8 1.6 4.4 0 2.9-.8 4.8-2.5 5.7-2.4 1.2-5.2 1.8-7.9 1.7-2.1 0-3.9 1.7-3.9 3.9v5.7c0 2.2 1.8 4 4 4s4-1.8 4-4v-3c3.6-.1 7.1-1.3 10-3.5 2.9-2.4 4.4-5.9 4.4-10.5.2-4.1-1.1-7.4-3.7-9.8z" fill="#c7d7e5"/><path d="m126.6 123.9h-.2c-2.6 0-4.7 2.1-4.7 4.7s2.1 4.7 4.7 4.7h.2c2.6 0 4.7-2.1 4.7-4.7s-2.1-4.7-4.7-4.7z" fill="#c7d7e5"/><path d="m233.5 46.8h-211c-1.1 0-2 .9-2 2v8.5h215v-8.5c0-1.1-.9-2-2-2z" fill="#edf4fc"/><path d="m36 46.8h-13.5c-1.1 0-2 .9-2 2v8.5h15.5z" fill="#9be5f9"/><path d="m84 200.2v1.7c0 3.7 3 6.8 6.8 6.8h75.4c3.7 0 6.8-3 6.8-6.8v-1.7z" fill="#c7d7e5"/><path d="m66.6 21.9c-4-.7-7.1-3.8-7.9-7.7 0-.1-.1-.2-.2-.1-.1 0-.1.1-.1.1-.8 4-3.9 7-7.9 7.7-.1 0-.2.1-.1.2 0 .1.1.1.1.1 4 .7 7.1 3.8 7.9 7.7 0 .1.1.2.2.1.1 0 .1-.1.1-.1.8-4 3.9-7 7.9-7.7.1 0 .2-.1.1-.2 0 0 0-.1-.1-.1z" fill="#3caadc"/><circle cx="105.7" cy="233.6" fill="#f5c84c" r="3"/><circle cx="88.7" cy="10.6" fill="#ef4460" r="3"/><circle cx="202.7" cy="21.6" fill="#f5c84c" r="3"/><path d="m141.3 237.9h-2.1v-2.1c0-1.5-1.3-2.8-2.8-2.8s-2.8 1.3-2.8 2.8v2.1h-2.1c-1.5 0-2.8 1.3-2.8 2.8s1.3 2.8 2.8 2.8h2.1v2.1c0 1.5 1.3 2.8 2.8 2.8s2.8-1.3 2.8-2.8v-2.1h2.1c1.5 0 2.8-1.3 2.8-2.8s-1.3-2.8-2.8-2.8z" fill="#b2e26d"/><path d="m248.6 197.8h-4c2.2-2.5 3.4-5.7 3.4-9v-140c0-8-6.5-14.5-14.5-14.5h-211c-8 0-14.5 6.5-14.5 14.5v141.1c.2 2.9 1.4 5.7 3.3 7.9h-4c-4.1 0-7.4 3.3-7.4 7.4 0 9.2 7.4 16.6 16.6 16.6h222.8c9.2 0 16.6-7.4 16.6-16.6.1-4.1-3.2-7.4-7.3-7.4zm-235.6-149c0-5.2 4.3-9.5 9.5-9.5h211c5.2 0 9.5 4.3 9.5 9.5v140c-.1 5.1-4.3 9.1-9.4 9h-211.2c-5.1.1-9.3-3.9-9.4-9zm157.4 154c-.4 2-2.2 3.5-4.2 3.5h-75.4c-2.1 0-3.8-1.5-4.2-3.5zm69 14h-222.8c-6.4 0-11.6-5.2-11.6-11.6 0-1.3 1.1-2.4 2.4-2.4h74.1c.4 4.8 4.4 8.5 9.2 8.5h75.4c4.8 0 8.8-3.7 9.2-8.5h73.1c1.3 0 2.4 1.1 2.4 2.4.2 6.4-5 11.5-11.4 11.6z"/><path d="m22.4 192.8h211.2c2.3.1 4.3-1.7 4.4-4v-140c0-2.5-2-4.5-4.5-4.5h-211c-2.5 0-4.5 2-4.5 4.5v140 .3c.3 2.1 2.2 3.7 4.4 3.7zm56.3-5 .7-13c.2-3.3 2.5-6.1 5.7-6.9l19.8-5c.2 0 .3-.1.5-.2l10.8-5.3c1.5-.7 2.5-2.3 2.5-4v-7.1c0-1.6-.9-3.1-2.3-3.9-6.3-3.5-10.6-9.8-11.6-17-.3-2.1-2.2-3.7-4.3-3.7-4.5 0-8.1-3.6-8.1-8.1 0-2.5 1.1-4.8 3.1-6.4.6-.5.9-1.2.9-2v-11.7c0-13.2 10.7-23.8 23.8-23.8h7.5c3.4 0 6.7 1.5 9 4.1 1.7 1.9 4.3 2.6 6.7 1.8 1.9-.7 3.9-.9 5.9-.7 6 1 10.5 6.2 10.4 12.4v18.6c0 .7.2 1.4.8 1.9 3.2 3.1 3.3 8.3.2 11.5-1.5 1.6-3.7 2.5-5.9 2.5-2.2 0-4 1.6-4.3 3.7-.9 6.9-5 13.1-11 16.6-1.3.8-2.2 2.2-2.2 3.8v7.5c0 1.7 1 3.2 2.5 4l10.8 5.3c.2.1.3.1.5.2l19.8 5c3.2.8 5.5 3.6 5.7 6.9l.7 13zm-40.2-138.6h194.5v5.5h-194.5zm-15.5 0h10.5v5.5h-10.5zm0 10.6h210v128h-50.7l-.7-13.2c-.3-5.5-4.1-10.2-9.5-11.5l-19.5-4.9-10.3-5.1v-6.8c7-4.3 11.8-11.4 13-19.5 7.1-.3 12.6-6.1 12.6-13.1 0-3.2-1.2-6.3-3.3-8.7v-17.8c.1-8.6-6.2-16-14.7-17.3-2.8-.4-5.7-.1-8.4.9-.5.1-.9-.1-1.2-.4-3.2-3.6-7.9-5.7-12.7-5.7h-7.5c-15.9 0-28.8 12.9-28.8 28.8v10.7c-5.2 5-5.4 13.4-.3 18.6 2.4 2.4 5.6 3.9 8.9 4 1.4 8.4 6.4 15.7 13.8 19.9v6.4l-10.3 5.1-19.5 4.8c-5.3 1.3-9.2 6-9.5 11.5l-.7 13.2h-50.7z"/><path d="m130.5 122.6c1.6-1.2 2.5-3.1 2.5-5.2v-.8c8.8-1.4 14.5-6.8 14.5-16.3 0-4.9-1.6-8.8-4.8-11.7-3.1-2.8-7.1-4.2-11.9-4.2-6.2 0-12.1 2.4-15.2 7.6-.8 1.3-1.4 2.7-1.7 4.1-.9 3.5 1.2 7.1 4.7 8s7.1-1.2 8-4.7c0-.1 0-.1 0-.2.4-1.8 2.1-2.4 4-2.4 2.6 0 3.6 1.2 3.6 3.5 0 2.9-.9 3.4-1.2 3.6-2.1 1-4.3 1.5-6.6 1.3-3.5 0-6.4 2.9-6.4 6.4v5.7c0 2 1 4 2.6 5.2-3.3 2.2-4.2 6.6-2.1 9.9 1.3 2 3.6 3.3 6 3.2h.2c4 0 7.2-3.2 7.2-7.1-.1-2.3-1.4-4.6-3.4-5.9zm-3.9 8.2h-.2c-1.2 0-2.2-1-2.2-2.2s1-2.2 2.2-2.2h.2c1.2 0 2.2 1 2.2 2.2s-1 2.1-2.2 2.2zm1.4-16.4v3c0 .9-.7 1.5-1.5 1.5-.9 0-1.5-.7-1.5-1.5v-5.7c0-.8.6-1.4 1.4-1.4 7.6 0 12.9-2.3 12.9-9.9.1-2.3-.7-4.5-2.3-6.2-1.7-1.6-3.9-2.4-6.2-2.3-4.9 0-8 2.7-8.8 6.2-.2.7-.8 1.3-1.6 1.3-.9 0-1.6-.7-1.6-1.6 0-.1 0-.3.1-.4.2-1 .6-1.9 1.2-2.7 2.3-3.7 6.6-5.2 11-5.2 7 0 11.7 3.8 11.7 10.9 0 7.6-4.8 11-12.1 11.5-1.7.1-2.7 1.2-2.7 2.5z"/></g></g></svg>