<?xml version="1.0" encoding="UTF-8" standalone="no"?>
<!-- Created with Inkscape (http://www.inkscape.org/) -->

<svg
   xmlns:dc="http://purl.org/dc/elements/1.1/"
   xmlns:cc="http://creativecommons.org/ns#"
   xmlns:rdf="http://www.w3.org/1999/02/22-rdf-syntax-ns#"
   xmlns:svg="http://www.w3.org/2000/svg"
   xmlns="http://www.w3.org/2000/svg"
   xmlns:sodipodi="http://sodipodi.sourceforge.net/DTD/sodipodi-0.dtd"
   xmlns:inkscape="http://www.inkscape.org/namespaces/inkscape"
   width="210"
   height="75"
   id="svg4154"
   version="1.1"
   inkscape:version="0.48.4 r9939"
   sodipodi:docname="New document 4">
  <defs
     id="defs4156" />
  <sodipodi:namedview
     id="base"
     pagecolor="#ffffff"
     bordercolor="#ffffff"
     borderopacity="0.0"
     inkscape:pageopacity="0.0"
     inkscape:pageshadow="0"
     inkscape:zoom="2.8"
     inkscape:cx="143.44787"
     inkscape:cy="42.853093"
     inkscape:document-units="px"
     inkscape:current-layer="layer1"
     showgrid="false"
     fit-margin-top="0"
     fit-margin-left="0"
     fit-margin-right="0"
     fit-margin-bottom="0"
     inkscape:window-width="1366"
     inkscape:window-height="746"
     inkscape:window-x="-8"
     inkscape:window-y="-8"
     inkscape:window-maximized="1" />
  <metadata
     id="metadata4159">
    <rdf:RDF>
      <cc:Work
         rdf:about="">
        <dc:format>image/svg+xml</dc:format>
        <dc:type
           rdf:resource="http://purl.org/dc/dcmitype/StillImage" />
        <dc:title></dc:title>
      </cc:Work>
    </rdf:RDF>
  </metadata>
  <g
     inkscape:label="Layer 1"
     inkscape:groupmode="layer"
     id="layer1"
     transform="translate(4.262008e-7,-977.36217)">
    <g
       id="g4203"
       transform="matrix(0.96810443,0,0,0.96385545,77.339874,1074.5475)">
      <path
         id="path3433"
         style="fill:#ed1c24;fill-opacity:1;fill-rule:evenodd;stroke:none"
         d="m 15.068304,-87.629782 c 0,0 0,0 4.5625,0 1.6625,0 2.5,0.825 2.5,2.6875 0,0 0,0 0,6.6 0,0 0,0 8.9375,0 0,0 0,0 0,-6.6 0,-1.8625 0.825,-2.6875 2.7,-2.6875 0,0 0,0 4.3625,0 0,0 0,0 0,4.3375 0,0 0,0 -1.8625,0 0,0 -0.2125,0.2125 -0.2125,0.2125 0,0 0,0 0,18.575 0,0 0,0 -4.9875,0 0,0 0,0 0,-9.2875 0,0 0,0 -8.9375,0 0,0 0,0 0,9.2875 0,0 0,0 -4.9875,0 0,0 0,0 0,-18.575 0,0 0,-0.2125 -0.2125,-0.2125 0,0 0,0 -1.8625,0 0,0 0,0 0,-4.3375 z"
         inkscape:connector-curvature="0" />
      <path
         id="path3435"
         style="fill:#ed1c24;fill-opacity:1;fill-rule:evenodd;stroke:none"
         d="m 51.218304,-88.042282 0.1125,0.0125 0,4.7625 -0.1125,-0.025 c -3.7375,0 -6.65,3.1 -6.65,7.025 0,4.125 2.9125,7.425 6.65,7.425 l 0.1125,-0.025 0,4.7625 -0.1125,0.0125 c -6.65,0 -12.05,-5.3625 -12.05,-12.175 0,-6.6125 5.4,-11.775 12.05,-11.775 z"
         inkscape:connector-curvature="0" />
      <path
         id="path3437"
         style="fill:#ed1c24;fill-opacity:1;fill-rule:evenodd;stroke:none"
         d="m 51.330804,-88.029782 2.3125,0.225 c 5.4875,1.075 9.625,5.75 9.625,11.5375 0,5.95 -4.1375,10.8125 -9.625,11.925 l -2.3125,0.2375 0,-4.7625 2.5375,-0.55 c 2.45,-1.125 4.2125,-3.7625 4.2125,-6.85 0,-2.95 -1.7625,-5.425 -4.2125,-6.475 l -2.5375,-0.525 0,-4.7625 z"
         inkscape:connector-curvature="0" />
      <path
         id="path3439"
         style="fill:#ed1c24;fill-opacity:1;fill-rule:evenodd;stroke:none"
         d="m 64.305804,-87.629782 c 0,0 0,0 6.9625,0 l 3.325,0 0,4.3375 -0.3125,0 c -0.4125,0 -1.25,0 -2.9125,0 0,0 0,0 0,4.75 0,0 0,0 1.4125,0 l 1.8125,0 0,4.125 -1.0625,0 c -0.525,0 -1.225,0 -2.1625,0 0,0 0,0 0,5.1625 0,0.2125 0,0.2125 0.2125,0.2125 0,0 0,0 1.4875,0 l 1.525,0 0,4.5375 -0.4375,0 c -0.75,0 -2.2625,0 -5.275,0 -1.6625,0 -2.4875,-0.825 -2.4875,-2.6875 l 0,-16.1 c 0,0 0,0 -2.0875,0 0,0 0,0 0,-4.3375 z"
         inkscape:connector-curvature="0" />
      <path
         id="path3441"
         style="fill:#ed1c24;fill-opacity:1;fill-rule:evenodd;stroke:none"
         d="m 74.593304,-87.629782 0.1,0 c 4.575,0 7.275,2.475 7.275,6.2 0,2.2625 -1.0375,3.7125 -2.075,4.75 1.875,0.825 3.1125,2.8875 3.1125,5.15 0,4.3375 -3.325,7.025 -8.1,7.025 0,0 0,0 -0.0875,0 l -0.225,0 0,-4.5375 0.5125,0 c 1.6625,0 2.7125,-1.0375 2.7125,-2.6875 0,-1.65 -1.05,-2.6875 -2.7125,-2.6875 0,0 0,0 -0.4625,0 l -0.05,0 0,-4.125 0.1,0 c 1.4625,0 2.2875,-1.0375 2.2875,-2.475 0,-1.45 -0.825,-2.275 -2.2875,-2.275 0,0 0,0 -0.05,0 l -0.05,0 0,-4.3375 z"
         inkscape:connector-curvature="0" />
      <path
         id="path3443"
         style="fill:#ed1c24;fill-opacity:1;fill-rule:evenodd;stroke:none"
         d="m 92.568304,-87.629782 c 0,0 0,0 2.1,0 l 0.3875,0 0,6.6125 c -0.2,0.4125 -0.4125,1.025 -0.4125,1.65 0,0 0,0 -1.6625,4.75 0,0 0,0 1.7625,0 l 0.3125,0 0,4.325 -1.125,0 c -0.6375,0 -1.3625,0 -2.1875,0 0,0 0,0 -1.4625,3.725 -0.4125,1.4375 -1.2375,2.0625 -2.9,2.0625 0,0 0,0 -3.125,0 0,0 0,0 0,-4.5375 0,0 0,0 1.0375,0 0.425,0 0.425,0 0.625,-0.2125 0,0 0,0 6.65,-18.375 z"
         inkscape:connector-curvature="0" />
      <path
         id="path3445"
         style="fill:#ed1c24;fill-opacity:1;fill-rule:evenodd;stroke:none"
         d="m 95.055804,-87.629782 2.5,0 c 0,0 0,0 6.649996,18.375 0.2,0.2125 0.2,0.2125 0.6125,0.2125 0,0 0,0 0.8375,0 0,0 0,0 0,4.5375 0,0 0,0 -2.9125,0 -1.6625,0 -2.4875,-0.625 -2.912496,-2.275 0,0 0,0 -1.45,-3.5125 0,0 0,0 -2.8,0 l -0.525,0 0,-4.325 2.075,0 c 0,0 0,0 -1.65,-4.75 0,-0.625 -0.2125,-1.2375 -0.425,-1.65 l 0,-6.6125 z"
         inkscape:connector-curvature="0" />
      <path
         id="path3447"
         style="fill:#ed1c24;fill-opacity:1;fill-rule:evenodd;stroke:none"
         d="m 15.068304,-57.904782 c 0,0 0,0 18.075,0 1.6625,0 2.7,0.825 2.7,2.6875 0,0 0,0 0,15.6875 0,0.2 0,0.2 0.2125,0.2 0,0 0,0 1.6625,0 0,0 0,0 0,4.55 0,0 0,0 -4.3625,0 -1.875,0 -2.7,-0.825 -2.7,-2.6875 0,0 0,0 0,-15.8875 0,0 0,-0.2125 -0.2125,-0.2125 0,0 0,0 -8.3125,0 0,0 0,0 0,18.7875 0,0 0,0 -4.9875,0 0,0 0,0 0,-18.7875 0,0 0,0 -2.075,0 0,0 0,0 0,-4.3375 z"
         inkscape:connector-curvature="0" />
      <path
         id="path3449"
         style="fill:#ed1c24;fill-opacity:1;fill-rule:evenodd;stroke:none"
         d="m 50.805804,-58.317282 0.1,0.0125 0,4.7625 -0.1,-0.025 c -3.75,0 -6.65,3.1 -6.65,7.025 0,4.125 2.9,7.425 6.65,7.425 l 0.1,-0.025 0,4.7625 -0.1,0.0125 c -6.65,0 -11.85,-5.375 -11.85,-12.175 0,-6.6125 5.2,-11.775 11.85,-11.775 z"
         inkscape:connector-curvature="0" />
      <path
         id="path3451"
         style="fill:#ed1c24;fill-opacity:1;fill-rule:evenodd;stroke:none"
         d="m 50.905804,-58.304782 2.3875,0.225 c 5.5875,1.075 9.5625,5.75 9.5625,11.5375 0,5.95 -3.975,10.8125 -9.5625,11.925 l -2.3875,0.2375 0,-4.7625 2.6375,-0.55 c 2.4875,-1.125 4.125,-3.7625 4.125,-6.85 0,-2.95 -1.6375,-5.425 -4.125,-6.475 l -2.6375,-0.525 0,-4.7625 z"
         inkscape:connector-curvature="0" />
      <path
         id="path3453"
         style="fill:#ed1c24;fill-opacity:1;fill-rule:evenodd;stroke:none"
         d="m 63.893304,-57.904782 c 0,0 0,0 4.575,0 1.6625,0 2.4875,0.825 2.4875,2.6875 0,0 0,0 0,15.6875 0,0.2 0,0.2 0.2125,0.2 0,0 0,0 6.025,0 0,0 0,0 0,-18.575 0,0 0,0 4.9875,0 0,0 0,0 0,18.575 0,0 0,0 6.025,0 0.2125,0 0.2125,0 0.2125,-0.2 0,0 0,0 0,-15.6875 0,-1.8625 0.825,-2.6875 2.4875,-2.6875 0,0 0,0 4.575,0 0,0 0,0 0,4.3375 0,0 0,0 -1.875,0 -0.2125,0 -0.2125,0.2125 -0.2125,0.2125 0,0 0,0 0,15.8875 0,1.8625 -0.825,2.6875 -2.4875,2.6875 0,0 0,0 -22.2375,0 -1.8625,0 -2.7,-0.825 -2.7,-2.6875 0,0 0,0 0,-15.8875 0,0 0,-0.2125 -0.2,-0.2125 0,0 0,0 -1.875,0 0,0 0,0 0,-4.3375 z"
         inkscape:connector-curvature="0" />
      <path
         id="path3455"
         style="fill:#ed1c24;fill-opacity:1;fill-rule:evenodd;stroke:none"
         d="m 99.418304,-57.904782 c 0,0 0,0 15.587496,0 1.875,0 2.5,0.825 2.5,2.475 0,0 0,0 0,3.925 l -4.575,0 c 0,0 0,0 0,-1.85 0,-0.2125 0,-0.2125 -0.2125,-0.2125 0,0 0,0 -2.9,0 0,0 0,0 0,18.7875 0,0 0,0 -5,0 0,0 0,0 0,-18.7875 0,0 0,0 -2.9,0 -0.2125,0 -0.2125,0 -0.2125,0.2125 0,0 0,0 0,1.85 0,0 0,0 -4.574996,0 0,0 0,0 0,-3.925 0,-1.65 0.625,-2.475 2.2875,-2.475 z"
         inkscape:connector-curvature="0" />
      <path
         id="path3457"
         style="fill:#ed1c24;fill-opacity:1;fill-rule:evenodd;stroke:none"
         d="m 123.9433,-57.904782 c 0,0 0,0 2.1,0 l 0.3875,0 0,6.6125 c -0.2125,0.4125 -0.4125,1.025 -0.4125,1.65 0,0 0,0 -1.6625,4.75 0,0 0,0 1.75,0 l 0.325,0 0,4.325 -1.125,0 c -0.6375,0 -1.3625,0 -2.2,0 0,0 0,0 -1.45,3.5125 -0.4125,1.65 -1.25,2.275 -2.9125,2.275 0,0 0,0 -3.1125,0 0,0 0,0 0,-4.55 0,0 0,0 1.0375,0 0.425,0 0.425,0 0.625,-0.2 0,0 0,0 6.65,-18.375 z"
         inkscape:connector-curvature="0" />
      <path
         id="path3459"
         style="fill:#ed1c24;fill-opacity:1;fill-rule:evenodd;stroke:none"
         d="m 126.4308,-57.904782 2.4875,0 c 0,0 0,0 6.6625,18.375 0.2,0.2 0.2,0.2 0.625,0.2 l 0.825,0 c 0,0 0,0 0,4.55 0,0 0,0 -2.9125,0 -1.6625,0 -2.4875,-0.625 -2.9125,-2.275 0,0 0,0 -1.45,-3.5125 0,0 0,0 -2.8,0 l -0.525,0 0,-4.325 2.075,0 c 0,0 0,0 -1.6625,-4.75 0,-0.625 -0.2,-1.2375 -0.4125,-1.65 l 0,-6.6125 z"
         inkscape:connector-curvature="0" />
      <path
         id="path3461"
         style="fill:#ed1c24;fill-opacity:1;fill-rule:evenodd;stroke:none"
         d="m -16.956696,-77.792282 c 0.2375,-0.075 0.55,0.075 0.8625,0.4875 0,0 0,0 14.1249996,13.825 0.825,0.825 0.825,2.075 0,2.6875 0,0 0,0 -14.1249996,14.0375 -0.3125,0.4125 -0.625,0.5125 -0.8625,0.3875 -0.2375,-0.125 -0.3875,-0.4875 -0.3875,-1.0125 l 0,-29.5125 c 0,-0.5125 0.15,-0.825 0.3875,-0.9 z"
         inkscape:connector-curvature="0" />
      <path
         id="path3463"
         style="fill:#ed1c24;fill-opacity:1;fill-rule:evenodd;stroke:none"
         d="m -41.119196,-100.82978 1,0 0.9625,0.4 c 0,0 0,0 14.5375,14.449998 0.625,0.825 0.4125,1.45 -0.625,1.45 0,0 0,0 -6.025,0 -1.0375,0 -1.8625,0.825 -1.8625,1.8625 0,0 0,0 0,10.725 0,1.0375 -0.8375,1.8625 -2.0875,1.8625 0,0 0,0 -10.5875,0 -1.0375,0 -1.875,-0.825 -1.875,-1.8625 0,0 0,0 0,-10.725 0,-1.0375 -0.825,-1.8625 -1.875,-1.8625 l -6.4375,0 c -1.0375,0 -1.25,-0.625 -0.625,-1.45 0,0 0,0 14.55,-14.449998 l 0.95,-0.4 z"
         inkscape:connector-curvature="0" />
      <path
         id="path3465"
         style="fill:#ed1c24;fill-opacity:1;fill-rule:evenodd;stroke:none"
         d="m -63.894196,-78.104782 c 0.2625,0.125 0.425,0.4875 0.425,1.0125 l 0,30.125 c 0,0.525 -0.1625,0.8375 -0.425,0.9375 -0.25,0.1 -0.6125,0 -1.0375,-0.3125 0,0 0,0 -14.3375,-14.45 -0.825,-0.6125 -0.825,-1.8625 0,-2.6875 0,0 0,0 14.3375,-14.2375 0.425,-0.4125 0.7875,-0.5125 1.0375,-0.3875 z"
         inkscape:connector-curvature="0" />
      <path
         id="path3467"
         style="fill:#ed1c24;fill-opacity:1;fill-rule:evenodd;stroke:none"
         d="m -45.806696,-54.392282 c 0,0 0,0 10.5875,0 1.25,0 2.0875,0.825 2.0875,1.8625 0,0 0,0 0,11.35 0,1.2375 0.825,2.0625 1.8625,2.0625 l 5.6125,0 c 1.0375,0 1.45,0.6125 0.625,1.2375 0,0 0,0 -14.125,14.2375 -0.425,0.4125 -0.9375,0.625 -1.4625,0.625 -0.5125,0 -1.0375,-0.2125 -1.45,-0.625 0,0 0,0 -14.125,-14.2375 -0.8375,-0.625 -0.425,-1.2375 0.6125,-1.2375 0,0 0,0 6.025,0 1.05,0 1.875,-0.825 1.875,-2.0625 0,0 0,0 0,-11.35 0,-1.0375 0.8375,-1.8625 1.875,-1.8625 z"
         inkscape:connector-curvature="0" />
    </g>
  </g>
</svg>
